<svg class="lifecycle-diagram update" viewBox="0 0 96.9 73"><rect ry="15.8" y="10" x="65.4" height="63" width="31.6" class="controlled" style="opacity: 1;"></rect><use xmlns:xlink="http://www.w3.org/1999/xlink" xlink:href="#diagram-static"></use><text x="47.7" y="6.7" class="label">Waiting</text><g class="cog cog-new" style="opacity: 1; transform: matrix(1.1187, 0, 0, 1.1187, 1.078, 12.408);" data-svg-origin="-1.1260418891906738 -0.9879550337791443"><use height="10" width="10" xmlns:xlink="http://www.w3.org/1999/xlink" xlink:href="#diagram-sw" data-svg-origin="11.997791767120361 12" style="transform: matrix(1, 0, 0, 1, 0, 0); transform-origin: 0px 0px 0px;"></use></g><g transform="matrix(1.1187 0 0 1.1187 67.745 12.408)" class="cog cog-old" style="opacity: 1;"><use xmlns:xlink="http://www.w3.org/1999/xlink" xlink:href="#diagram-sw" width="10" height="10" data-svg-origin="11.997791767120361 12" style="transform: matrix(1, 0, 0, 1, 0, 0); transform-origin: 0px 0px 0px;"></use></g><use transform="matrix(.09532 0 0 .09532 71.44 48.39)" xmlns:xlink="http://www.w3.org/1999/xlink" xlink:href="#diagram-page" width="10" height="10" class="diagram-page" style="opacity: 1;"></use><path d="M78.6 47.7c-1-6-2-11.6-1.6-17" class="fetch" style="stroke-dashoffset: -19px;"></path><path d="M83 47.5c1.4-5.4 3.3-10.8 2.4-16.2" class="fetch" style="stroke-dashoffset: -19px;"></path><path d="M75.7 47c-2.3-6.3-3.2-12.5-2-18.2" class="fetch" style="stroke-dashoffset: -19px;"></path><path d="M89.5 29.5c.3 6-.4 12-4 18" class="fetch" style="stroke-dashoffset: -19px;"></path><path d="M75.4 30.3c0 4-1 6 2 17.2" class="fetch" style="stroke-dashoffset: -19px;"></path><path d="M86.6 31C88 37 86 42 84 47.4" class="fetch" style="stroke-dashoffset: -19px;"></path><g class="refresh-rotator" data-svg-origin="81.19999694824219 58.099998474121094" style="transform: matrix(1, 0, 0, 1, 0, 0);"><use xmlns:xlink="http://www.w3.org/1999/xlink" xlink:href="#diagram-refresh" class="diagram-refresh" data-svg-origin="81.19999694824219 58.099998474121094" style="opacity: 0; transform: matrix(0, 0, 0, 0, 81.2, 58.1); transform-origin: 0px 0px 0px;"></use></g><use xmlns:xlink="http://www.w3.org/1999/xlink" xlink:href="#diagram-close" class="diagram-close" data-svg-origin="81.19999694824219 58.099998474121094" style="opacity: 0; transform: matrix(0, 0, 0, 0, 81.2, 58.1); transform-origin: 0px 0px 0px;"></use></svg>